<?xml version="1.0" standalone="no"?>
<!DOCTYPE svg PUBLIC "-//W3C//DTD SVG 20010904//EN"
 "http://www.w3.org/TR/2001/REC-SVG-20010904/DTD/svg10.dtd">
<svg version="1.0" xmlns="http://www.w3.org/2000/svg"
 width="512.000000pt" height="512.000000pt" viewBox="0 0 512.000000 512.000000"
 preserveAspectRatio="xMidYMid meet">
<metadata>
Created by potrace 1.14, written by Peter Selinger 2001-2017
</metadata>
<g transform="translate(0.000000,512.000000) scale(0.100000,-0.100000)"
fill="#000000" stroke="none">
<path d="M671 5102 c-21 -10 -43 -33 -55 -57 -20 -39 -20 -48 -23 -2502 -2
-2415 -2 -2462 17 -2486 11 -13 35 -32 54 -41 31 -15 197 -16 1898 -16 1788 0
1865 1 1898 18 19 10 43 34 52 53 17 32 18 144 15 1979 -2 1406 -6 1951 -14
1965 -17 29 -1078 1088 -1100 1096 -10 4 -623 8 -1363 8 -1262 1 -1347 0
-1379 -17z"/>
</g>
</svg>
